{"title":"Hotel Transylvania 3 A Monster Vacation 2018 720p HC HDRip x264 ","magnet":"magnet:?xt=urn:btih:2e57ac452c0f804b9f04a53b7817406e8638d5dd&dn=Hotel+Transylvania+3+A+Monster+Vacation+2018+720p+HC+HDRip+x264+&tr=udp%3A%2F%2Ftracker.leechers-paradise.org%3A6969&tr=udp%3A%2F%2Fzer0day.ch%3A1337&tr=udp%3A%2F%2Fopen.demonii.com%3A1337&tr=udp%3A%2F%2Ftracker.coppersurfer.tk%3A6969&tr=udp%3A%2F%2Fexodus.desync.com%3A6969","uploader":"MFreaky","categoryP":"video","categoryS":"hd___movies","size":"892876123","seeders":"74","leechers":"40","description":"Hotel Transylvania 3 A Monster Vacation 2018 720p HC HDRip x264 [MW]\r\n <a href=\"\nhttps://pichub.site/image/EENEI\" rel=\"nofollow\" target=\"_NEW\">\nhttps://pichub.site/image/EENEI</a> <a href=\"\nhttps://pichub.site/image/EEUmX\" rel=\"nofollow\" target=\"_NEW\">\nhttps://pichub.site/image/EEUmX</a> <a href=\"\nhttps://pichub.site/image/EEvs8\" rel=\"nofollow\" target=\"_NEW\">\nhttps://pichub.site/image/EEvs8</a> <a href=\"\nhttps://pichub.site/image/EE0aJ\" rel=\"nofollow\" target=\"_NEW\">\nhttps://pichub.site/image/EE0aJ</a> <a href=\"\nhttps://pichub.site/image/EELz5\" rel=\"nofollow\" target=\"_NEW\">\nhttps://pichub.site/image/EELz5</a> <a href=\"\nhttps://pichub.site/image/EEr5h\" rel=\"nofollow\" target=\"_NEW\">\nhttps://pichub.site/image/EEr5h</a>\r\n\r\nIMDB <a href=\"\nhttps://www.imdb.com/title/tt5220122/\" rel=\"nofollow\" target=\"_NEW\">\nhttps://www.imdb.com/title/tt5220122/</a>\r\n\r\nVideo\r\nFormat                                   : AVC\r\nFormat/Info                              : Advanced Video Codec\r\nFormat profile                           : High@L4.1\r\nFormat settings                          : CABAC / 4 Ref Frames\r\nFormat settings, CABAC                   : Yes\r\nFormat settings, RefFrames               : 4 frames\r\nCodec ID                                 : V_MPEG4/ISO/AVC\r\nDuration                                 : 1 h 32 min\r\nBit rate                                 : 1 100 kb/s\r\nWidth                                    : 1 280 pixels\r\nHeight                                   : 720 pixels\r\nDisplay aspect ratio                     : 16:9\r\nFrame rate mode                          : Constant\r\nFrame rate                               : 30.000 FPS\r\nColor space                              : YUV\r\nChroma subsampling                       : 4:2:0\r\nBit depth                                : 8 bits\r\nScan type                                : Progressive\r\nBits/(Pixel*Frame)                       : 0.040\r\nStream size                              : 722 MiB (85%)\r\nWriting library                          : x264 core 155 r2901 7d0ff22\r\n\r\nAudio\r\nFormat                                   : AAC\r\nFormat/Info                              : Advanced Audio Codec\r\nFormat profile                           : LC\r\nCodec ID                                 : A_AAC-2\r\nDuration                                 : 1 h 32 min\r\nBit rate                                 : 192 kb/s\r\nChannel(s)                               : 2 channels\r\nChannel positions                        : Front: L R\r\nSampling rate                            : 48.0 kHz\r\nFrame rate                               : 46.875 FPS (1024 SPF)\r\nCompression mode                         : Lossy\r\nStream size                              : 128 MiB (15%)\r\nLanguage                                 : English","last_updated":"2018-09-17T12:25:50.395Z","parsed":{"xt":"urn:btih:2e57ac452c0f804b9f04a53b7817406e8638d5dd","dn":"Hotel Transylvania 3 A Monster Vacation 2018 720p HC HDRip x264 ","tr":["udp://exodus.desync.com:6969","udp://open.demonii.com:1337","udp://tracker.coppersurfer.tk:6969","udp://tracker.leechers-paradise.org:6969","udp://zer0day.ch:1337"],"infoHash":"2e57ac452c0f804b9f04a53b7817406e8638d5dd","infoHashBuffer":{"type":"Buffer","data":[46,87,172,69,44,15,128,75,159,4,165,59,120,23,64,110,134,56,213,221]},"name":"Hotel Transylvania 3 A Monster Vacation 2018 720p HC HDRip x264 ","announce":["udp://exodus.desync.com:6969","udp://open.demonii.com:1337","udp://tracker.coppersurfer.tk:6969","udp://tracker.leechers-paradise.org:6969","udp://zer0day.ch:1337"],"urlList":[]}}